# xmcd
#
# Track frame offsets:
#	150
#	20850
#	39725
#	59300
#	79812
#
# Disc length: 1363 seconds
#
# Revision: 1
# Processed by: cddbd v1.4PL0 Copyright (c) Steve Scherf et al.
# Submitted via: audiograbber 1.81.02
#
DISCID=3e055105
DTITLE=Ja Rule - Thug Lovin (Single)
DYEAR=1900
DGENRE=R&B
TTITLE0=Thug Loving (Radio Edit)
TTITLE1=Betwenn Me An You (feat. Christina Milian)
TTITLE2=Put It On Me (feat Dita)
TTITLE3=Thug Loving (Instrumental)
TTITLE4=Thug Lovin Acapella)
EXTD=
EXTT0=
EXTT1=
EXTT2=
EXTT3=
EXTT4=
PLAYORDER=
